<?xml version="1.0" encoding="UTF-8" standalone="no"?>
<!-- Created with Inkscape (http://www.inkscape.org/) -->

<svg
   version="1.1"
   id="svg824"
   width="24.000444"
   height="23.999975"
   viewBox="0 0 24.000444 23.999975"
   sodipodi:docname="linkedin.svg"
   inkscape:version="1.1.1 (3bf5ae0d25, 2021-09-20)"
   xmlns:inkscape="http://www.inkscape.org/namespaces/inkscape"
   xmlns:sodipodi="http://sodipodi.sourceforge.net/DTD/sodipodi-0.dtd"
   xmlns="http://www.w3.org/2000/svg"
   xmlns:svg="http://www.w3.org/2000/svg">
  <defs
     id="defs828" />
  <sodipodi:namedview
     id="namedview826"
     pagecolor="#505050"
     bordercolor="#eeeeee"
     borderopacity="1"
     inkscape:pageshadow="0"
     inkscape:pageopacity="0"
     inkscape:pagecheckerboard="0"
     showgrid="false"
     inkscape:zoom="8.8498832"
     inkscape:cx="33.333773"
     inkscape:cy="15.649924"
     inkscape:window-width="1920"
     inkscape:window-height="1009"
     inkscape:window-x="-8"
     inkscape:window-y="-8"
     inkscape:window-maximized="1"
     inkscape:current-layer="g830"
     fit-margin-top="0"
     fit-margin-left="0"
     fit-margin-right="0"
     fit-margin-bottom="0" />
  <g
     inkscape:groupmode="layer"
     inkscape:label="Image"
     id="g830"
     transform="translate(-1224.1478,-156.37708)">
    <path
       style="fill:#00778b;fill-opacity:1;fill-rule:evenodd;stroke-width:1.1084;stroke-linecap:round;paint-order:stroke markers fill"
       d="m 1225.3575,180.29732 c -0.2353,-0.0815 -0.4924,-0.23575 -0.669,-0.40138 -0.1663,-0.15591 -0.4066,-0.54733 -0.468,-0.76208 -0.067,-0.23538 -0.1042,-20.65698 -0.038,-21.20064 0.023,-0.18756 0.08,-0.42876 0.1278,-0.536 0.1754,-0.39544 0.6277,-0.78843 1.0902,-0.94723 0.199,-0.0683 0.9067,-0.0731 10.7577,-0.0729 10.0399,2.1e-4 10.5549,0.004 10.7561,0.0768 0.6084,0.22049 1.005,0.5985 1.1719,1.117 0.053,0.16545 0.062,1.65748 0.062,10.84893 v 10.65709 l -0.1243,0.25578 c -0.068,0.14067 -0.1703,0.31673 -0.2264,0.39124 -0.1627,0.21607 -0.5316,0.46957 -0.8222,0.56503 l -0.2682,0.0881 -10.568,-0.003 c -9.9044,-0.003 -10.5814,-0.008 -10.781,-0.0768 z m 5.9425,-9.19239 v -5.77661 l -1.7998,0.0111 -1.7998,0.0111 -0.011,5.7122 c -0.01,3.14171 0,5.73619 0.01,5.76549 0.016,0.0415 0.4175,0.0533 1.8107,0.0533 h 1.7905 z m 5.797,2.47291 c 0.014,-1.80531 0.036,-3.32075 0.05,-3.36764 0.014,-0.0469 0.048,-0.20995 0.076,-0.36234 0.028,-0.1524 0.077,-0.31957 0.1095,-0.3715 0.032,-0.0519 0.058,-0.11606 0.058,-0.14252 0,-0.0265 0.081,-0.17126 0.1798,-0.32178 0.2747,-0.41803 0.6051,-0.60872 1.25,-0.72131 0.4084,-0.0713 0.4446,-0.0713 0.7636,-2.7e-4 0.1841,0.041 0.409,0.11327 0.4998,0.16061 0.3795,0.19795 0.6474,0.59504 0.8274,1.22628 0.073,0.25649 0.081,0.5337 0.1003,3.72999 l 0.021,3.4529 h 1.8105 1.8104 l 0.014,-3.32502 c 0.017,-4.14757 -0.02,-4.77626 -0.346,-5.84009 -0.1656,-0.54002 -0.3204,-0.8551 -0.6178,-1.25754 -0.2254,-0.30493 -0.6722,-0.72468 -0.7714,-0.72468 -0.026,0 -0.047,-0.0158 -0.047,-0.0351 0,-0.0407 -0.486,-0.2726 -0.7689,-0.36685 -0.5026,-0.16744 -0.8222,-0.20833 -1.6592,-0.21227 -0.6919,-0.003 -0.8841,0.01 -1.1502,0.0786 -0.1757,0.0454 -0.3377,0.0981 -0.36,0.11722 -0.022,0.0191 -0.067,0.0347 -0.099,0.0347 -0.116,0 -0.6755,0.30956 -0.9817,0.54323 -0.3161,0.24117 -0.7135,0.67165 -0.8491,0.9197 -0.073,0.13339 -0.074,0.12238 -0.086,-0.66413 l -0.012,-0.79977 -1.7137,0.0111 -1.7136,0.0111 -0.011,5.71221 c -0.01,3.14171 0,5.73639 0.01,5.76596 0.016,0.0423 0.3992,0.0514 1.8001,0.0426 l 1.7797,-0.0111 z m -7.3175,-9.74437 c 0.1685,-0.0255 0.3543,-0.0659 0.4129,-0.0898 0.4728,-0.19238 0.6714,-0.33683 1.0181,-0.74087 0.1412,-0.16454 0.2982,-0.54936 0.3682,-0.9027 0.064,-0.32459 0.064,-0.37789 0,-0.69175 -0.038,-0.18704 -0.1047,-0.42203 -0.1485,-0.5222 -0.1981,-0.45269 -0.6829,-0.91377 -1.1535,-1.09696 -0.2918,-0.11364 -0.9121,-0.16028 -1.2284,-0.0924 -0.7014,0.15052 -1.3537,0.75864 -1.5576,1.45191 -0.039,0.13398 -0.068,0.38758 -0.068,0.6019 0,0.60266 0.1903,1.06724 0.6134,1.49749 0.344,0.34978 0.6994,0.50847 1.4018,0.62599 0.019,0.003 0.1722,-0.0151 0.3408,-0.0407 z"
       id="path1596" />
  </g>
</svg>
